<svg xmlns="http://www.w3.org/2000/svg" viewBox="0 0 140.87 211.55"><defs><style>.cls-1{fill:#7fba27;}.cls-2{fill:#9ac31c;}.cls-3{fill:#d12023;}.cls-4{fill:#e62c27;}.cls-5{fill:#fad8e9;}</style></defs><title>Fichier 8</title><g id="Calque_2" data-name="Calque 2"><g id="Calque_3" data-name="Calque 3"><path class="cls-1" d="M63.39,0,48.05,103.91c15.06-8.16,27.37-27,30.71-49.85S75.62,10.75,63.39,0Z"/><path class="cls-2" d="M63.42,0h-.11C48.25,8.16,35.93,27,32.58,49.86S35.76,93.29,48.06,104h.13L63.53.11Z"/><path class="cls-1" d="M88.23,26,49.12,123.44C65.67,119,82,103.53,90.6,82.12S97.63,39.26,88.23,26Z"/><path class="cls-2" d="M88.27,26l-.1,0c-16.56,4.43-32.93,19.91-41.5,41.33s-7,43,2.46,56.24l.1,0h0L88.35,26.1Z"/><path class="cls-1" d="M12,35.9l72.17,76.26c2.89-16.89-4.33-38.22-20.2-55S27.93,32.9,12,35.9Z"/><path class="cls-2" d="M12,35.85l-.08.08c-2.9,16.88,4.32,38.23,20.2,55s36.11,24.35,52.11,21.28l.07-.08v0L12.09,35.82Z"/><path class="cls-3" d="M67.77,57.22C51.53,65.42,26.7,55.53,10.41,82c-19.15,26.5-9.45,55.33,9.43,81,15.58,21.17,35.86,39.7,54.77,47a22.26,22.26,0,0,0,22.11-3.51c14.11-11.48,39.86-37.55,43.71-77.17C145.63,75.87,103.58,39.15,67.77,57.22Z"/><path class="cls-4" d="M22.07,85.11a1.49,1.49,0,0,0-2.64-1.34C10.18,98.24,1.37,138,46.32,175.89c17.15,14.46,26,22.48,30.18,26.42a1.5,1.5,0,0,0,2.31-1.85C70.9,186.89,39,150,31.19,131.82,21.06,108.4,18.69,93.61,22.07,85.11Z"/><ellipse class="cls-5" cx="98.01" cy="96.66" rx="2.16" ry="3.6" transform="translate(-26.2 37.32) rotate(-19.07)"/><ellipse class="cls-5" cx="64.7" cy="85.68" rx="2.16" ry="3.6" transform="translate(-24.44 25.83) rotate(-19.07)"/><ellipse class="cls-5" cx="39.93" cy="108.68" rx="2.16" ry="3.6" transform="translate(-33.31 19.01) rotate(-19.07)"/><ellipse class="cls-5" cx="11.95" cy="108.68" rx="2.16" ry="3.6" transform="translate(-34.84 9.87) rotate(-19.07)"/><ellipse class="cls-5" cx="39.93" cy="85.68" rx="2.16" ry="3.6" transform="translate(-25.8 17.74) rotate(-19.07)"/><ellipse class="cls-5" cx="51.45" cy="142.02" rx="2.16" ry="3.6" transform="translate(-43.57 24.6) rotate(-19.07)"/><ellipse class="cls-5" cx="33.25" cy="148.31" rx="2.16" ry="3.6" transform="translate(-46.62 19) rotate(-19.07)"/><ellipse class="cls-5" cx="75.9" cy="114.85" rx="2.16" ry="3.6" transform="translate(-33.35 31.09) rotate(-19.07)"/><ellipse class="cls-5" cx="79.03" cy="139.42" rx="2.16" ry="3.6" transform="translate(-41.21 33.46) rotate(-19.07)"/><ellipse class="cls-5" cx="86.38" cy="69.63" rx="2.16" ry="3.6" transform="translate(-18.01 32.04) rotate(-19.07)"/><ellipse class="cls-5" cx="98.75" cy="138.22" rx="2.16" ry="3.6" transform="translate(-39.73 39.84) rotate(-19.07)"/><ellipse class="cls-5" cx="75.03" cy="162.6" rx="2.16" ry="3.6" transform="translate(-49 33.43) rotate(-19.07)"/><ellipse class="cls-5" cx="64.7" cy="178.77" rx="2.16" ry="3.6" transform="translate(-54.85 30.94) rotate(-19.07)"/><ellipse class="cls-5" cx="87.1" cy="186.6" rx="2.16" ry="3.6" transform="translate(-56.18 38.69) rotate(-19.07)"/><ellipse class="cls-5" cx="105.23" cy="160.81" rx="2.16" ry="3.6" transform="translate(-46.76 43.2) rotate(-19.07)"/><ellipse class="cls-5" cx="118.98" cy="115.63" rx="2.16" ry="3.6" transform="translate(-31.25 45.21) rotate(-19.07)"/><ellipse class="cls-5" cx="111.96" cy="79" rx="2.16" ry="3.6" transform="translate(-19.66 40.9) rotate(-19.07)"/></g></g></svg>