<svg id="bold" height="512" viewBox="0 0 32 32" width="512" xmlns="http://www.w3.org/2000/svg"><path d="m6 0h20c3.314 0 6 2.686 6 6v20c0 3.314-2.686 6-6 6h-20c-3.314 0-6-2.686-6-6v-20c0-3.314 2.686-6 6-6z" fill="#f5e6fe"/><g fill="#d9a4fc"><path d="m22.167 22h-5c-.234 0-.437-.163-.488-.392l-.667-3c-.033-.148.003-.303.098-.421s.238-.187.39-.187h6.083l.434-1.629c.071-.267.345-.426.612-.354.267.071.425.345.354.612l-1.333 5c-.058.219-.257.371-.483.371z"/><circle cx="18.667" cy="23.334" r=".667"/><circle cx="21.333" cy="23.334" r=".667"/></g><path d="m23.333 13.333h-.04l-.48-3.6c-.133-.986-.98-1.733-1.98-1.733h-9.667c-1 0-1.847.747-1.98 1.733l-.48 3.6h-.04c-.366 0-.666.3-.666.667s.3.667.667.667h.667v6c0 1.1.9 2 2 2h4.427c-.187-.213-.32-.473-.38-.767l-.127-.567h-3.92c-.367 0-.667-.3-.667-.667v-6h10.667v2h.227l.167-.64c.127-.473.433-.867.853-1.113.027-.013.06-.033.087-.04v-.207h.667c.365.001.665-.299.665-.666s-.3-.667-.667-.667zm-11.626 0h-1.653l.453-3.42c.047-.333.327-.58.66-.58h1.073zm3.626 0h-2.28l.533-4h1.747zm1.334 0v-4h1.747l.533 4zm3.626 0-.533-4h1.073c.333 0 .613.247.66.58l.453 3.42z" fill="#be63f9"/><path d="m15.073 17.353c-.353.433-.487.993-.36 1.547l.187.833c-.2.167-.453.267-.733.267h-1c-.64 0-1.167-.527-1.167-1.167v-1c0-.64.527-1.167 1.167-1.167h1c.427 0 .8.233 1 .58-.034.034-.06.067-.094.107z" fill="#be63f9"/></svg>